<svg xmlns="http://www.w3.org/2000/svg" viewBox="0 0 120 120" width="120" height="120">
  <defs>
    <linearGradient id="gspec" x1="0" y1="0" x2="0.35" y2="1">
      <stop offset="0" stop-color="#8A6BFF"></stop>
      <stop offset="1" stop-color="#2F80ED"></stop>
    </linearGradient>
  </defs>
  <path d="M26,106 L26,64 C26,34 41,15 60,15 C79,15 94,34 94,64 L94,106 Z" fill="url(#gspec)" opacity="0.26" transform="translate(60,70) scale(1.16) translate(-60,-70)"></path>
  <path d="M26,106 L26,64 C26,34 41,15 60,15 C79,15 94,34 94,64 L94,106 Z" fill="url(#gspec)" opacity="0.5" transform="translate(60,70) scale(0.94) translate(-60,-70)"></path>
  <path d="M26,106 L26,64 C26,34 41,15 60,15 C79,15 94,34 94,64 L94,106 Z" fill="url(#gspec)" transform="translate(60,70) scale(0.72) translate(-60,-70)"></path>
  <ellipse cx="60" cy="69.8" rx="11.5" ry="19.4" fill="#0B0D12" opacity="0.3"></ellipse>
  <circle cx="54.96" cy="55.6" r="2.45" fill="#E7DEFF"></circle>
  <circle cx="65.04" cy="55.6" r="2.45" fill="#E7DEFF"></circle>
</svg>